<svg width="14" height="13" viewBox="0 0 14 13" fill="none" xmlns="http://www.w3.org/2000/svg">
<path d="M12.6875 0.625H1.3125C0.574219 0.625 0 1.22656 0 1.9375V11.5625C0 12.3008 0.574219 12.875 1.3125 12.875H12.6875C13.3984 12.875 14 12.3008 14 11.5625V1.9375C14 1.22656 13.3984 0.625 12.6875 0.625ZM10.3906 8.58203C10.5273 8.71875 10.5273 8.9375 10.3906 9.04688L9.26953 10.168C9.16016 10.3047 8.94141 10.3047 8.80469 10.168L7 8.33594L5.16797 10.168C5.03125 10.3047 4.8125 10.3047 4.70312 10.168L3.58203 9.04688C3.44531 8.9375 3.44531 8.71875 3.58203 8.58203L5.41406 6.75L3.58203 4.94531C3.44531 4.80859 3.44531 4.58984 3.58203 4.48047L4.70312 3.35938C4.8125 3.22266 5.03125 3.22266 5.16797 3.35938L7 5.19141L8.80469 3.35938C8.94141 3.22266 9.16016 3.22266 9.26953 3.35938L10.3906 4.48047C10.5273 4.58984 10.5273 4.80859 10.3906 4.94531L8.55859 6.75L10.3906 8.58203Z" fill="black"/>
</svg>
