<svg width="32" height="32" viewBox="0 0 32 32" fill="none" xmlns="http://www.w3.org/2000/svg">
<path d="M15.8125 8.01367C11.4375 8.01367 7.95117 11.5684 7.95117 15.875C7.95117 20.25 11.4375 23.7363 15.8125 23.7363C20.1191 23.7363 23.6738 20.25 23.6738 15.875C23.6738 11.5684 20.1191 8.01367 15.8125 8.01367ZM15.8125 21.002C13.0098 21.002 10.6855 18.7461 10.6855 15.875C10.6855 13.0723 12.9414 10.8164 15.8125 10.8164C18.6152 10.8164 20.8711 13.0723 20.8711 15.875C20.8711 18.7461 18.6152 21.002 15.8125 21.002ZM25.793 7.74023C25.793 8.76562 24.9727 9.58594 23.9473 9.58594C22.9219 9.58594 22.1016 8.76562 22.1016 7.74023C22.1016 6.71484 22.9219 5.89453 23.9473 5.89453C24.9727 5.89453 25.793 6.71484 25.793 7.74023ZM30.9883 9.58594C30.8516 7.125 30.3047 4.9375 28.5273 3.16016C26.75 1.38281 24.5625 0.835938 22.1016 0.699219C19.5723 0.5625 11.9844 0.5625 9.45508 0.699219C6.99414 0.835938 4.875 1.38281 3.0293 3.16016C1.25195 4.9375 0.70508 7.125 0.56836 9.58594C0.431641 12.1152 0.431641 19.7031 0.56836 22.2324C0.70508 24.6934 1.25195 26.8125 3.0293 28.6582C4.875 30.4355 6.99414 30.9824 9.45508 31.1191C11.9844 31.2559 19.5723 31.2559 22.1016 31.1191C24.5625 30.9824 26.75 30.4355 28.5273 28.6582C30.3047 26.8125 30.8516 24.6934 30.9883 22.2324C31.125 19.7031 31.125 12.1152 30.9883 9.58594ZM27.707 24.8984C27.2285 26.2656 26.1348 27.291 24.8359 27.8379C22.7852 28.6582 18 28.4531 15.8125 28.4531C13.5566 28.4531 8.77148 28.6582 6.78906 27.8379C5.42188 27.291 4.39648 26.2656 3.84961 24.8984C3.0293 22.916 3.23438 18.1309 3.23438 15.875C3.23438 13.6875 3.0293 8.90234 3.84961 6.85156C4.39648 5.55273 5.42188 4.52734 6.78906 3.98047C8.77148 3.16016 13.5566 3.36523 15.8125 3.36523C18 3.36523 22.7852 3.16016 24.8359 3.98047C26.1348 4.45898 27.1602 5.55273 27.707 6.85156C28.5273 8.90234 28.3223 13.6875 28.3223 15.875C28.3223 18.1309 28.5273 22.916 27.707 24.8984Z" fill="black"/>
</svg>
